%TF.GenerationSoftware,KiCad,Pcbnew,10.0.4*%
%TF.CreationDate,2026-07-18T14:47:36+05:30*%
%TF.ProjectId,ESP32-Environmental-Monitor,45535033-322d-4456-9e76-69726f6e6d65,rev?*%
%TF.SameCoordinates,Original*%
%TF.FileFunction,Legend,Top*%
%TF.FilePolarity,Positive*%
%FSLAX46Y46*%
G04 Gerber Fmt 4.6, Leading zero omitted, Abs format (unit mm)*
G04 Created by KiCad (PCBNEW 10.0.4) date 2026-07-18 14:47:36*
%MOMM*%
%LPD*%
G01*
G04 APERTURE LIST*
%ADD10C,0.150000*%
%ADD11C,0.120000*%
G04 APERTURE END LIST*
D10*
X146745833Y-108804819D02*
X146412500Y-108328628D01*
X146174405Y-108804819D02*
X146174405Y-107804819D01*
X146174405Y-107804819D02*
X146555357Y-107804819D01*
X146555357Y-107804819D02*
X146650595Y-107852438D01*
X146650595Y-107852438D02*
X146698214Y-107900057D01*
X146698214Y-107900057D02*
X146745833Y-107995295D01*
X146745833Y-107995295D02*
X146745833Y-108138152D01*
X146745833Y-108138152D02*
X146698214Y-108233390D01*
X146698214Y-108233390D02*
X146650595Y-108281009D01*
X146650595Y-108281009D02*
X146555357Y-108328628D01*
X146555357Y-108328628D02*
X146174405Y-108328628D01*
X147698214Y-108804819D02*
X147126786Y-108804819D01*
X147412500Y-108804819D02*
X147412500Y-107804819D01*
X147412500Y-107804819D02*
X147317262Y-107947676D01*
X147317262Y-107947676D02*
X147222024Y-108042914D01*
X147222024Y-108042914D02*
X147126786Y-108090533D01*
X119254819Y-106001904D02*
X120064342Y-106001904D01*
X120064342Y-106001904D02*
X120159580Y-105954285D01*
X120159580Y-105954285D02*
X120207200Y-105906666D01*
X120207200Y-105906666D02*
X120254819Y-105811428D01*
X120254819Y-105811428D02*
X120254819Y-105620952D01*
X120254819Y-105620952D02*
X120207200Y-105525714D01*
X120207200Y-105525714D02*
X120159580Y-105478095D01*
X120159580Y-105478095D02*
X120064342Y-105430476D01*
X120064342Y-105430476D02*
X119254819Y-105430476D01*
X120254819Y-104430476D02*
X120254819Y-105001904D01*
X120254819Y-104716190D02*
X119254819Y-104716190D01*
X119254819Y-104716190D02*
X119397676Y-104811428D01*
X119397676Y-104811428D02*
X119492914Y-104906666D01*
X119492914Y-104906666D02*
X119540533Y-105001904D01*
X123245833Y-93304819D02*
X122912500Y-92828628D01*
X122674405Y-93304819D02*
X122674405Y-92304819D01*
X122674405Y-92304819D02*
X123055357Y-92304819D01*
X123055357Y-92304819D02*
X123150595Y-92352438D01*
X123150595Y-92352438D02*
X123198214Y-92400057D01*
X123198214Y-92400057D02*
X123245833Y-92495295D01*
X123245833Y-92495295D02*
X123245833Y-92638152D01*
X123245833Y-92638152D02*
X123198214Y-92733390D01*
X123198214Y-92733390D02*
X123150595Y-92781009D01*
X123150595Y-92781009D02*
X123055357Y-92828628D01*
X123055357Y-92828628D02*
X122674405Y-92828628D01*
X123626786Y-92400057D02*
X123674405Y-92352438D01*
X123674405Y-92352438D02*
X123769643Y-92304819D01*
X123769643Y-92304819D02*
X124007738Y-92304819D01*
X124007738Y-92304819D02*
X124102976Y-92352438D01*
X124102976Y-92352438D02*
X124150595Y-92400057D01*
X124150595Y-92400057D02*
X124198214Y-92495295D01*
X124198214Y-92495295D02*
X124198214Y-92590533D01*
X124198214Y-92590533D02*
X124150595Y-92733390D01*
X124150595Y-92733390D02*
X123579167Y-93304819D01*
X123579167Y-93304819D02*
X124198214Y-93304819D01*
X146804819Y-100238094D02*
X145804819Y-100238094D01*
X145804819Y-100238094D02*
X145804819Y-99999999D01*
X145804819Y-99999999D02*
X145852438Y-99857142D01*
X145852438Y-99857142D02*
X145947676Y-99761904D01*
X145947676Y-99761904D02*
X146042914Y-99714285D01*
X146042914Y-99714285D02*
X146233390Y-99666666D01*
X146233390Y-99666666D02*
X146376247Y-99666666D01*
X146376247Y-99666666D02*
X146566723Y-99714285D01*
X146566723Y-99714285D02*
X146661961Y-99761904D01*
X146661961Y-99761904D02*
X146757200Y-99857142D01*
X146757200Y-99857142D02*
X146804819Y-99999999D01*
X146804819Y-99999999D02*
X146804819Y-100238094D01*
X146804819Y-98714285D02*
X146804819Y-99285713D01*
X146804819Y-98999999D02*
X145804819Y-98999999D01*
X145804819Y-98999999D02*
X145947676Y-99095237D01*
X145947676Y-99095237D02*
X146042914Y-99190475D01*
X146042914Y-99190475D02*
X146090533Y-99285713D01*
X124094819Y-110051904D02*
X124904342Y-110051904D01*
X124904342Y-110051904D02*
X124999580Y-110004285D01*
X124999580Y-110004285D02*
X125047200Y-109956666D01*
X125047200Y-109956666D02*
X125094819Y-109861428D01*
X125094819Y-109861428D02*
X125094819Y-109670952D01*
X125094819Y-109670952D02*
X125047200Y-109575714D01*
X125047200Y-109575714D02*
X124999580Y-109528095D01*
X124999580Y-109528095D02*
X124904342Y-109480476D01*
X124904342Y-109480476D02*
X124094819Y-109480476D01*
X124190057Y-109051904D02*
X124142438Y-109004285D01*
X124142438Y-109004285D02*
X124094819Y-108909047D01*
X124094819Y-108909047D02*
X124094819Y-108670952D01*
X124094819Y-108670952D02*
X124142438Y-108575714D01*
X124142438Y-108575714D02*
X124190057Y-108528095D01*
X124190057Y-108528095D02*
X124285295Y-108480476D01*
X124285295Y-108480476D02*
X124380533Y-108480476D01*
X124380533Y-108480476D02*
X124523390Y-108528095D01*
X124523390Y-108528095D02*
X125094819Y-109099523D01*
X125094819Y-109099523D02*
X125094819Y-108480476D01*
%TO.C,R1*%
D11*
X146685436Y-110735000D02*
X147139564Y-110735000D01*
X146685436Y-109265000D02*
X147139564Y-109265000D01*
%TO.C,U1*%
X123850000Y-97640000D02*
X123850000Y-98910000D01*
X122580000Y-97640000D02*
X123850000Y-97640000D01*
X123600000Y-97890000D02*
X123600000Y-113490000D01*
X115600000Y-97890000D02*
X123600000Y-97890000D01*
X123600000Y-113490000D02*
X115600000Y-113490000D01*
X115600000Y-113490000D02*
X115600000Y-97890000D01*
%TO.C,R2*%
X123185436Y-93765000D02*
X123639564Y-93765000D01*
X123185436Y-95235000D02*
X123639564Y-95235000D01*
%TO.C,D1*%
X147040000Y-101185000D02*
X148960000Y-101185000D01*
X148960000Y-101185000D02*
X148960000Y-98500000D01*
X147040000Y-98500000D02*
X147040000Y-101185000D01*
%TO.C,U2*%
X126130000Y-85000000D02*
X126130000Y-91160000D01*
X126130000Y-85000000D02*
X144370000Y-85000000D01*
X126130000Y-109960000D02*
X126130000Y-110740000D01*
X126130000Y-110740000D02*
X127130000Y-110740000D01*
X144370000Y-85000000D02*
X144370000Y-91415000D01*
X144370000Y-109960000D02*
X144370000Y-110740000D01*
X144370000Y-110740000D02*
X143370000Y-110740000D01*
X126125000Y-91885000D02*
X125625000Y-91885000D01*
X126125000Y-91385000D01*
X126125000Y-91885000D01*
G36*
X126125000Y-91885000D02*
G01*
X125625000Y-91885000D01*
X126125000Y-91385000D01*
X126125000Y-91885000D01*
G37*
%TD*%
M02*
