%TF.GenerationSoftware,KiCad,Pcbnew,10.0.4*%
%TF.CreationDate,2026-07-18T14:47:36+05:30*%
%TF.ProjectId,ESP32-Environmental-Monitor,45535033-322d-4456-9e76-69726f6e6d65,rev?*%
%TF.SameCoordinates,Original*%
%TF.FileFunction,Copper,L1,Top*%
%TF.FilePolarity,Positive*%
%FSLAX46Y46*%
G04 Gerber Fmt 4.6, Leading zero omitted, Abs format (unit mm)*
G04 Created by KiCad (PCBNEW 10.0.4) date 2026-07-18 14:47:36*
%MOMM*%
%LPD*%
G01*
G04 APERTURE LIST*
G04 Aperture macros list*
%AMRoundRect*
0 Rectangle with rounded corners*
0 $1 Rounding radius*
0 $2 $3 $4 $5 $6 $7 $8 $9 X,Y pos of 4 corners*
0 Add a 4 corners polygon primitive as box body*
4,1,4,$2,$3,$4,$5,$6,$7,$8,$9,$2,$3,0*
0 Add four circle primitives for the rounded corners*
1,1,$1+$1,$2,$3*
1,1,$1+$1,$4,$5*
1,1,$1+$1,$6,$7*
1,1,$1+$1,$8,$9*
0 Add four rect primitives between the rounded corners*
20,1,$1+$1,$2,$3,$4,$5,0*
20,1,$1+$1,$4,$5,$6,$7,0*
20,1,$1+$1,$6,$7,$8,$9,0*
20,1,$1+$1,$8,$9,$2,$3,0*%
G04 Aperture macros list end*
%TA.AperFunction,SMDPad,CuDef*%
%ADD10RoundRect,0.250000X-0.262500X-0.450000X0.262500X-0.450000X0.262500X0.450000X-0.262500X0.450000X0*%
%TD*%
%TA.AperFunction,ComponentPad*%
%ADD11R,1.500000X1.500000*%
%TD*%
%TA.AperFunction,ComponentPad*%
%ADD12C,1.500000*%
%TD*%
%TA.AperFunction,SMDPad,CuDef*%
%ADD13RoundRect,0.243750X0.456250X-0.243750X0.456250X0.243750X-0.456250X0.243750X-0.456250X-0.243750X0*%
%TD*%
%TA.AperFunction,SMDPad,CuDef*%
%ADD14R,1.500000X0.900000*%
%TD*%
%TA.AperFunction,SMDPad,CuDef*%
%ADD15R,0.900000X1.500000*%
%TD*%
%TA.AperFunction,SMDPad,CuDef*%
%ADD16R,1.050000X1.050000*%
%TD*%
%TA.AperFunction,HeatsinkPad*%
%ADD17C,0.600000*%
%TD*%
%TA.AperFunction,HeatsinkPad*%
%ADD18R,4.200000X4.200000*%
%TD*%
%TA.AperFunction,Conductor*%
%ADD19C,0.200000*%
%TD*%
G04 APERTURE END LIST*
D10*
%TO.P,R1,2*%
%TO.N,Net-(D1-A)*%
X147825000Y-110000000D03*
%TO.P,R1,1*%
%TO.N,Net-(U2-IO2)*%
X146000000Y-110000000D03*
%TD*%
D11*
%TO.P,U1,1,VDD_1*%
%TO.N,VCC*%
X121000000Y-101880000D03*
D12*
%TO.P,U1,2,SDA_2*%
%TO.N,Net-(U1-SDA)*%
X121000000Y-104420000D03*
%TO.P,U1,3,GND_3*%
%TO.N,GND*%
X121000000Y-106960000D03*
%TO.P,U1,4,GND_4*%
X121000000Y-109500000D03*
%TD*%
D10*
%TO.P,R2,1*%
%TO.N,VCC*%
X122500000Y-94500000D03*
%TO.P,R2,2*%
%TO.N,Net-(U1-SDA)*%
X124325000Y-94500000D03*
%TD*%
D13*
%TO.P,D1,1,K_1*%
%TO.N,GND*%
X148000000Y-100437500D03*
%TO.P,D1,2,A_2*%
%TO.N,Net-(D1-A)*%
X148000000Y-98562500D03*
%TD*%
D14*
%TO.P,U2,1,GND_1*%
%TO.N,GND*%
X126500000Y-92610000D03*
%TO.P,U2,2,VDD_2*%
%TO.N,VCC*%
X126500000Y-93880000D03*
%TO.P,U2,3,EN_3*%
%TO.N,unconnected-(U2-EN-Pad3)*%
X126500000Y-95150000D03*
%TO.P,U2,4,SENSOR_VP_4*%
%TO.N,unconnected-(U2-SENSOR_VP-Pad4)*%
X126500000Y-96420000D03*
%TO.P,U2,5,SENSOR_VN_5*%
%TO.N,unconnected-(U2-SENSOR_VN-Pad5)*%
X126500000Y-97690000D03*
%TO.P,U2,6,IO34_6*%
%TO.N,unconnected-(U2-IO34-Pad6)*%
X126500000Y-98960000D03*
%TO.P,U2,7,IO35_7*%
%TO.N,unconnected-(U2-IO35-Pad7)*%
X126500000Y-100230000D03*
%TO.P,U2,8,IO32_8*%
%TO.N,unconnected-(U2-IO32-Pad8)*%
X126500000Y-101500000D03*
%TO.P,U2,9,IO33_9*%
%TO.N,unconnected-(U2-IO33-Pad9)*%
X126500000Y-102770000D03*
%TO.P,U2,10,IO25_10*%
%TO.N,unconnected-(U2-IO25-Pad10)*%
X126500000Y-104040000D03*
%TO.P,U2,11,IO26_11*%
%TO.N,unconnected-(U2-IO26-Pad11)*%
X126500000Y-105310000D03*
%TO.P,U2,12,IO27_12*%
%TO.N,unconnected-(U2-IO27-Pad12)*%
X126500000Y-106580000D03*
%TO.P,U2,13,IO14_13*%
%TO.N,unconnected-(U2-IO14-Pad13)*%
X126500000Y-107850000D03*
%TO.P,U2,14,IO12_14*%
%TO.N,unconnected-(U2-IO12-Pad14)*%
X126500000Y-109120000D03*
D15*
%TO.P,U2,15,GND_15*%
%TO.N,GND*%
X129540000Y-110370000D03*
%TO.P,U2,16,IO13_16*%
%TO.N,unconnected-(U2-IO13-Pad16)*%
X130810000Y-110370000D03*
%TO.P,U2,17,SHD/SD2_17*%
%TO.N,unconnected-(U2-SHD{slash}SD2-Pad17)*%
X132080000Y-110370000D03*
%TO.P,U2,18,SWP/SD3_18*%
%TO.N,unconnected-(U2-SWP{slash}SD3-Pad18)*%
X133350000Y-110370000D03*
%TO.P,U2,19,SCS/CMD_19*%
%TO.N,unconnected-(U2-SCS{slash}CMD-Pad19)*%
X134620000Y-110370000D03*
%TO.P,U2,20,SCK/CLK_20*%
%TO.N,unconnected-(U2-SCK{slash}CLK-Pad20)*%
X135890000Y-110370000D03*
%TO.P,U2,21,SDO/SD0_21*%
%TO.N,unconnected-(U2-SDO{slash}SD0-Pad21)*%
X137160000Y-110370000D03*
%TO.P,U2,22,SDI/SD1_22*%
%TO.N,unconnected-(U2-SDI{slash}SD1-Pad22)*%
X138430000Y-110370000D03*
%TO.P,U2,23,IO15_23*%
%TO.N,Net-(U1-SDA)*%
X139700000Y-110370000D03*
%TO.P,U2,24,IO2_24*%
%TO.N,Net-(U2-IO2)*%
X140970000Y-110370000D03*
D14*
%TO.P,U2,25,IO0_25*%
%TO.N,unconnected-(U2-IO0-Pad25)*%
X144000000Y-109120000D03*
%TO.P,U2,26,IO4_26*%
%TO.N,unconnected-(U2-IO4-Pad26)*%
X144000000Y-107850000D03*
%TO.P,U2,27,IO16_27*%
%TO.N,unconnected-(U2-IO16-Pad27)*%
X144000000Y-106580000D03*
%TO.P,U2,28,IO17_28*%
%TO.N,unconnected-(U2-IO17-Pad28)*%
X144000000Y-105310000D03*
%TO.P,U2,29,IO5_29*%
%TO.N,unconnected-(U2-IO5-Pad29)*%
X144000000Y-104040000D03*
%TO.P,U2,30,IO18_30*%
%TO.N,unconnected-(U2-IO18-Pad30)*%
X144000000Y-102770000D03*
%TO.P,U2,31,IO19_31*%
%TO.N,unconnected-(U2-IO19-Pad31)*%
X144000000Y-101500000D03*
%TO.P,U2,32,NC_32*%
%TO.N,unconnected-(U2-NC-Pad32)*%
X144000000Y-100230000D03*
%TO.P,U2,33,IO21_33*%
%TO.N,unconnected-(U2-IO21-Pad33)*%
X144000000Y-98960000D03*
%TO.P,U2,34,RXD0/IO3_34*%
%TO.N,unconnected-(U2-RXD0{slash}IO3-Pad34)*%
X144000000Y-97690000D03*
%TO.P,U2,35,TXD0/IO1_35*%
%TO.N,unconnected-(U2-TXD0{slash}IO1-Pad35)*%
X144000000Y-96420000D03*
%TO.P,U2,36,IO22_36*%
%TO.N,unconnected-(U2-IO22-Pad36)*%
X144000000Y-95150000D03*
%TO.P,U2,37,IO23_37*%
%TO.N,unconnected-(U2-IO23-Pad37)*%
X144000000Y-93880000D03*
%TO.P,U2,38,GND_38*%
%TO.N,GND*%
X144000000Y-92610000D03*
D16*
%TO.P,U2,39,GND_39*%
X133045000Y-98425000D03*
D17*
X133045000Y-99187500D03*
D16*
X133045000Y-99950000D03*
D17*
X133045000Y-100712500D03*
D16*
X133045000Y-101475000D03*
D17*
X133807500Y-98425000D03*
X133807500Y-99950000D03*
X133807500Y-101475000D03*
D16*
X134570000Y-98425000D03*
D17*
X134570000Y-99187500D03*
D16*
X134570000Y-99950000D03*
D18*
X134570000Y-99950000D03*
D17*
X134570000Y-100712500D03*
D16*
X134570000Y-101475000D03*
D17*
X135332500Y-98425000D03*
X135332500Y-99950000D03*
X135332500Y-101475000D03*
D16*
X136095000Y-98425000D03*
D17*
X136095000Y-99187500D03*
D16*
X136095000Y-99950000D03*
D17*
X136095000Y-100712500D03*
D16*
X136095000Y-101475000D03*
%TD*%
%TO.N,Net-(U1-SDA)*%
D19*
X139700000Y-111320000D02*
X139700000Y-110370000D01*
X123000000Y-115000000D02*
X136020000Y-115000000D01*
X136020000Y-115000000D02*
X139700000Y-111320000D01*
X123000000Y-106420000D02*
X123000000Y-115000000D01*
X121000000Y-104420000D02*
X123000000Y-106420000D01*
X121000000Y-104420000D02*
X121000000Y-105420000D01*
%TO.N,GND*%
X149000000Y-96660000D02*
X144950000Y-92610000D01*
X149000000Y-99437500D02*
X149000000Y-96660000D01*
X148000000Y-100437500D02*
X149000000Y-99437500D01*
X144000000Y-92610000D02*
X144950000Y-92610000D01*
X144000000Y-92610000D02*
X144000000Y-92260000D01*
%TO.N,Net-(D1-A)*%
X147000000Y-99562500D02*
X148000000Y-98562500D01*
X147000000Y-109175000D02*
X147000000Y-99562500D01*
X147825000Y-110000000D02*
X147000000Y-109175000D01*
%TD*%
M02*
